<?xml version="1.0" encoding="utf-8"?>
<!-- Generator: $$$/GeneralStr/196=Adobe Illustrator 27.6.0, SVG Export Plug-In . SVG Version: 6.00 Build 0)  -->
<svg version="1.1" id="Calque_1" xmlns="http://www.w3.org/2000/svg" xmlns:xlink="http://www.w3.org/1999/xlink" x="0px" y="0px"
	 viewBox="0 0 824.2 126.5" style="enable-background:new 0 0 824.2 126.5;" xml:space="preserve">
<g>
	<path d="M9.9,78.8c-1.8,15.5,0,29.1,19.9,29.1c18.3,0,24.6-10.2,24.6-20.6c0-11.7-8.5-14.5-19.7-19.9C22.8,61.7,15.6,57,15.6,40.5
		C15.6,23.7,30,6.8,56.4,6.8c16.9,0,26,8.6,26,20.6c0,4.2-1.1,7.9-2.8,10.9h-6.9c1.8-9.7,2.9-23.4-17.2-23.4
		c-19.2,0-24.5,10.5-24.5,19.4c0,11.7,6.6,14.2,17.6,17.9c12.3,4.3,23.1,9.4,23.1,27.4c0,17.1-13.5,36.5-42.2,36.5
		C6.8,116.1,0,103.5,0,91.9c0-4.6,1.1-9.1,3.5-13.1H9.9z"/>
	<path d="M120.9,103.8c-5.1,8.3-11.1,12.3-21.4,12.3c-10,0-16.2-6.5-16.2-16c0-16.8,17.6-24.3,33.3-26.6c5.1-0.8,10.3-1.8,14.2-3.2
		c5.5-2,7.7-6.8,7.7-11.7c0-6-3.7-11.5-12.8-11.5c-10.2,0-16.6,6-17.9,16h-6.6c-0.6-14.5,10.9-23.1,27.9-23.1
		c15.2,0,23.7,8.6,23.7,20.3c0,15.4-18.2,31.6-18.2,42.5c0,4.8,1.7,6.5,5.4,6.5c3.2,0,5.7-1.2,6.5-6.2h3.8
		c0.3,7.5-4.3,13.1-14.2,13.1C126.6,116.1,122.1,111.9,120.9,103.8z M123.2,88.8c2.2-4.6,4.2-8.9,7.5-13.1
		c-5.1,1.8-10.8,2.6-15.1,3.8c-6.2,1.4-12.2,5.4-14.2,13.7c-1.8,7.5,0,13.7,6.5,13.7C115.6,107,119.5,96.8,123.2,88.8z"/>
	<path d="M197.2,5.2c3.4,4.6,5.2,10.9,5.2,18c0,12.3-3.8,24-10.2,43.3l-15.9,48h-4.9c-4.2-7.5-5.2-14.6-5.2-22.2
		c0-30.5,28-45.6,28-76.1c0-4.6-1.2-8.2-1.8-9.7L197.2,5.2z"/>
	<path d="M249.9,39.9c16,0,25.6,9.4,25.6,25.2c0,22.6-20.5,51-44.2,51c-16,0-25.6-9.1-25.6-25.2C205.7,68.2,226.2,39.9,249.9,39.9z
		 M263.1,56.8c0-5.7-4.2-10.8-12.9-10.8C236,46,234.3,61.4,227.8,77c-5.2,12.6-9.9,15.2-9.9,22.2c0,5.7,4,10.8,12.8,10.8
		c14.2,0,16-15.4,22.5-30.9C258.5,66.4,263.1,63.7,263.1,56.8z"/>
	<path d="M296.8,114.5h-4.9c-4-8-5.2-15.2-5.2-20.6c0-23.1,17.7-33.1,17.7-46c0-2.5-0.9-4.9-1.7-6.3l4.3-1.2
		c5.2,3.5,6.5,11.4,5.5,18.9c5.7-11.2,14.3-19.4,26.9-19.4c12.8,0,17.1,7.7,17.1,17.1c5.7-11.1,13.5-17.1,25.9-17.1
		c12.9,0,19.1,9.4,19.1,20.5c0,26.5-24.8,34.5-24.8,45.6c0,2.3,1.5,3.8,4.3,5.4l-3.7,4.5c-5.7-2.9-10.6-7.9-10.6-15.7
		c0-20.6,21.1-28.5,21.1-44.6c0-4.8-3.4-7.2-8.2-7.2c-12.9,0-25.9,15.9-34,42.2l-7.5,24.2h-4.9c-4.3-8.3-5.2-16.2-5.2-21.4
		c0-21.2,15.2-28.9,15.2-39.3c0-2.9-1.5-5.7-6.3-5.7c-12.2,0-24.5,16.8-32.5,42.3L296.8,114.5z"/>
	<path d="M437.1,116.1c-18.8,0-26.6-11.2-26.6-27.7c0-24.8,22.9-48.5,44-48.5c13.5,0,20.9,6.9,20.9,17.2c0,8.8-6,15.6-14.8,18.3
		c-7.1,2.3-16.8,3.2-30.6,2.9c-5.1,10.6-7.4,12.3-7.4,18.8c0,7.4,5.5,11.5,14.6,11.5c13.2,0,19.2-5.7,20-18.3h6
		C464.2,106.5,453.5,116.1,437.1,116.1z M431.8,73.4c5.4,0,14,0,18.9-2.8c4.5-2.5,6-6.8,7.1-9.4c3.4-8.9,2.3-15.6-5.2-15.6
		C442.3,45.7,440.6,55.1,431.8,73.4z M480.3,0c3.4,0,6.2,2.8,6.2,5.9c0,7.4-12.8,10.8-30.6,23.4l-2.3-2.9
		C468.9,11.4,473.9,0,480.3,0z"/>
	<path d="M528.2,114.5c-2.3-8.2-2.9-17.4-2.9-23.4c0-30.5,22.5-58.8,30-82.8l38.6,2.2c8.3,0.5,12-0.8,13.9-3.2h1.7
		c0,12.6-5.4,16-14,16c-12,0-26.6-5.1-35.1-6.9c-1.1,10-4.8,26.9-8.5,40.3h34.9l-2.3,8.5h-35.1c-0.5,1.5-0.9,3.1-16.2,49.4H528.2z"
		/>
	<path d="M627.8,103.8c-5.1,8.3-11.1,12.3-21.4,12.3c-10,0-16.2-6.5-16.2-16c0-16.8,17.6-24.3,33.3-26.6c5.1-0.8,10.3-1.8,14.2-3.2
		c5.5-2,7.7-6.8,7.7-11.7c0-6-3.7-11.5-12.8-11.5c-10.2,0-16.6,6-17.9,16h-6.6C607.5,48.5,619,39.9,636,39.9
		c15.2,0,23.7,8.6,23.7,20.3c0,15.4-18.2,31.6-18.2,42.5c0,4.8,1.7,6.5,5.4,6.5c3.2,0,5.7-1.2,6.5-6.2h3.8
		c0.3,7.5-4.3,13.1-14.2,13.1C633.5,116.1,629,111.9,627.8,103.8z M630.1,88.8c2.2-4.6,4.2-8.9,7.5-13.1c-5.1,1.8-10.8,2.6-15.1,3.8
		c-6.2,1.4-12.2,5.4-14.2,13.7c-1.8,7.5,0,13.7,6.5,13.7C622.6,107,626.4,96.8,630.1,88.8z"/>
	<path d="M733.3,41.3h4.9c3.7,7.1,5.2,14.3,5.2,21.7c0,22.2-17.7,31.7-17.7,45.3c0,1.4,0.5,4,1.7,6.2l-4.3,1.2
		c-4.9-3.7-6.5-9.9-5.5-18.9c-5.9,11.4-14.8,19.4-26.8,19.4c-13.4,0-19.9-9.4-19.9-20.5c0-24.6,25.2-36.2,25.2-47.6
		c0-2.5-1.2-4-2.8-5.1l3.8-2.9c5.2,3.1,8.5,7.2,8.5,15.2c0,21.4-21.1,29.6-21.1,45.1c0,4.6,3.4,7.5,8.8,7.5
		c13.7,0,25.1-19.2,32.2-41.9L733.3,41.3z"/>
	<path d="M817.3,54.8c0,7.5-5.1,10.6-10.2,10.6c-1.2,0-2.5-0.2-3.7-0.6V62c2.8-1.7,5.2-3.2,5.2-7.7c0-4.9-3.4-8.5-10.5-8.5
		c-13.2,0-12.6,13.5-20,30.8c-6.2,14.5-9.9,14.6-9.9,22.2c0,6.3,6,9.9,13.2,9.9c11.9,0,19.4-5.5,19.7-18.3h6
		c1.2,16.2-10.2,25.7-26.3,25.7c-16.8,0-26.2-11.5-26.2-27.9c0-24.5,20-48.3,43.1-48.3C810.9,39.9,817.3,46.8,817.3,54.8z"/>
</g>
</svg>
